<svg xmlns="http://www.w3.org/2000/svg" viewBox="0 0 486.3 393.45"><defs><style>.cls-1{fill:#25323f;}.cls-2{fill:#fff;}</style></defs><g id="Layer_2" data-name="Layer 2"><g id="Layer_3" data-name="Layer 3"><path class="cls-1" d="M392,217.81c-64-153.42-347.87-41.21-216.74,146.3,7.51,12.49,4.94,8,7.67,18.58s15.4,3.41,15.4,3.41c61.8-43.56,84.88,18,133.51-5.73,85.79-41.84-20.33-99.35,48.92-143.22C389.83,230.59,395.92,227.59,392,217.81Z"/><path class="cls-2" d="M190,393.45a12.79,12.79,0,0,1-5.08-1c-2.39-1-5.52-3.32-6.87-8.53-.72-2.76-1.08-4.54-1.35-5.84-.58-2.79-.58-2.79-5.13-10.36l-.54-.91c-38.11-54.56-45.33-109.29-20.33-154.14,12.74-22.86,33.1-41.79,58.86-54.76a159.58,159.58,0,0,1,79.53-16.83c49.64,2.8,88.81,30.06,107.48,74.78l0,.05c5.08,12.55-2.85,18.14-10.52,23.55-.78.55-1.59,1.12-2.42,1.73l-.25.16c-29.92,19-24,39.56-17.1,63.42,7.63,26.43,16.27,56.38-32.31,80.07-23.44,11.43-41.53,4.65-59-1.91-21.34-8-41.49-15.54-73.8,7.24l-.43.27A24.16,24.16,0,0,1,190,393.45Zm90.7-242.59c-49.91,0-98.95,26.68-121.26,66.7-23.06,41.36-16,92.39,19.88,143.69l.19.29.63,1c5.12,8.51,5.43,9,6.35,13.49.26,1.26.59,2.84,1.24,5.36.4,1.53.93,1.76,1.1,1.83,1.48.64,4.88-.41,6.82-1.43,36.5-25.6,61.11-16.39,82.82-8.25,16.94,6.35,31.57,11.83,51.14,2.28,41-20,34.56-42.39,27.09-68.31-7-24.19-14.89-51.6,21.22-74.56.82-.59,1.62-1.15,2.39-1.69,8.33-5.88,8.94-6.87,7-11.6-17.14-41-53.15-66.05-98.8-68.63Q284.62,150.86,280.7,150.86Z"/><path class="cls-2" d="M454.27,369a41.58,41.58,0,0,1-9.38-1.06c-15.05-3.43-28.34-15-39.49-34.36-5.48-9.51-10.74-19-15.65-28.19a90.49,90.49,0,0,1-13.32-1.4c-10.45-1.94-31.59-23.35-35.73-27.63l7.19-6.95c10.84,11.2,25.53,23.85,30.36,24.75,1.66.31,3.65.6,6,.83-16.1-30.67-27.22-54.74-27.37-55.08l9.08-4.18c.16.35,12.43,26.9,29.82,59.68,12.43-.22,30-2.43,53.42-9.56a11.22,11.22,0,0,1,13.39,5.82c1.7,3.46,3.29,6.67,4.76,9.66,11.23,22.74,16.35,33.12,18.8,47.36a11.6,11.6,0,0,1-4.83,11.52C476,363.84,466.35,369,454.27,369Zm-53.22-63.74c4.14,7.64,8.5,15.49,13,23.33,9.7,16.86,20.82,26.82,33,29.6,12.67,2.89,23.32-2.67,28.54-6.24a1.56,1.56,0,0,0,.63-1.56c-2.21-12.81-7.13-22.78-17.91-44.63-1.48-3-3.07-6.21-4.77-9.68a1.28,1.28,0,0,0-1.51-.67C430.94,301.89,414.13,304.59,401.05,305.29Z"/><path class="cls-2" d="M386.54,336.68a388,388,0,0,1-64-5.63,9.29,9.29,0,0,1-6.8-5.08,9.44,9.44,0,0,1,.05-8.49l24.08-46.8,15.88-32.56a13,13,0,0,1,6-6L392,217.37l4.38,9-30.33,14.79a2.85,2.85,0,0,0-1.35,1.35l-16,32.71L325,321.34c22.36,3.85,94.53,13.7,139.51-9.52l4.59,8.88C445.11,333.09,414.24,336.68,386.54,336.68Z"/></g><g id="Layer_4" data-name="Layer 4"><path class="cls-1" d="M207,87.42s27.39,27.15,6.39,45.77c-19.79,17.54-40.74-7.45-46.84-12.77-24.14,5.79-54.79-19.71-54.79-19.71S134.45,133.5,126.56,157c4.75,6.55,27.8,29.63,8.57,47.79-20.4,19.27-45-10.42-45-10.42s-10.74,22.87-57.43,27.89c57.29,11.61,66,10.62,110.58,37,26.51-20.31,64.27-54,64.27-54S244.38,170.71,267,146.1c-22.35-46.77-20.59-55.33-27.1-113.43C230.74,78.74,207,87.42,207,87.42Z"/><path class="cls-2" d="M143.61,265.34l-2.91-1.72C102.73,241.14,92,239,52.05,231.23c-6-1.18-12.8-2.51-20.38-4L0,220.76l32.13-3.45c43.4-4.66,53.35-24.83,53.45-25l3.34-7.12,5,6.06c.11.14,12.09,14.32,24.83,15.08,4.75.28,9-1.39,12.92-5.11,12-11.35,3.84-25.05-6.79-38.17-1-1.18-1.78-2.2-2.4-3L121,157.88l.82-2.44c7-20.92-13.95-51.57-14.16-51.88L86.85,73.48,115,96.87c.28.24,29,23.82,50.42,18.69l2.51-.6,1.94,1.69c.79.69,1.73,1.6,2.82,2.66,12.13,11.75,25.05,21.11,37.42,10.14,4.06-3.6,6.1-7.67,6.23-12.45.3-10.63-9.16-22.4-12.82-26l-5.6-5.55,7.36-2.69c.59-.24,21.42-9.18,29.71-51L241.24,0l3.59,32.12c.86,7.68,1.59,14.58,2.22,20.66,4.25,40.47,5.39,51.35,24.43,91.16l1.45,3.05-2.28,2.49C248.2,173.94,211.32,208.64,211,209l-.1.09c-.38.33-38.21,34-64.56,54.2ZM58.09,222.22c36,7.06,49,10.09,84.78,31.07,25.43-19.77,59.75-50.28,61.28-51.63s34.9-32.89,56.85-56.47C243.27,107.64,241.4,94.5,237.55,58c-7.32,17.56-16.72,26.49-22.77,30.72,4.79,6.05,11.85,17,11.53,28.57-.21,7.58-3.44,14.19-9.59,19.65-21,18.63-42.81-2.49-51-10.44l-.69-.67c-13.55,2.12-28.15-3.62-39.11-9.67,5.06,11.46,9.48,26.51,6.17,39.81l.61.76c7.19,8.87,26.3,32.45,5.89,51.73-6,5.65-12.86,8.28-20.43,7.82-11.57-.7-21.84-8.71-27.43-14C86,207.91,76.23,216.48,58.09,222.22Z"/></g></g></svg>