<svg xmlns="http://www.w3.org/2000/svg" width="90.328" height="81.85" viewBox="0 0 90.328 81.85">
  <path id="Path_5" data-name="Path 5" d="M90.328,10.934c-12.029,9.143-19.6,6.171-19.6,6.171s.808,12.379-8.22,12.386c-8.506,0-8.224-10.481-8.559-13.062C46.9,12.676,44.958,0,44.958,0S43.431,12.735,36.52,16.713c-.252,2.591.378,13.064-8.126,13.338-9.022.291-8.616-12.1-8.616-12.1S12.316,21.164,0,12.418C11.048,27.065,13.515,28.969,18.378,43.785a33.927,33.927,0,0,0-3.455,15.081c0,17.769,13.017,22.984,30.786,22.984s30.973-5.04,30.973-22.809a33.8,33.8,0,0,0-3.806-15.72c4.452-15.363,6.8-17.239,17.453-32.387M33.3,62.441a6.78,6.78,0,1,1,6.78-6.78,6.78,6.78,0,0,1-6.78,6.78m23.731,0a6.78,6.78,0,1,1,6.78-6.78,6.78,6.78,0,0,1-6.78,6.78" fill="#4f5264"/>
</svg>
